<?xml version="1.0" encoding="UTF-8"?>
<svg width="142px" height="162px" viewBox="0 0 142 162" version="1.1" xmlns="http://www.w3.org/2000/svg" xmlns:xlink="http://www.w3.org/1999/xlink">
    <!-- Generator: Sketch 59.1 (86144) - https://sketch.com -->
    <title>安全可靠</title>
    <desc>Created with Sketch.</desc>
    <g id="Page-1" stroke="none" stroke-width="1" fill="none" fill-rule="evenodd">
        <g id="网页端" transform="translate(-1478.000000, -1717.000000)">
            <g id="安全可靠" transform="translate(1459.000000, 1708.000000)">
                <polygon id="Fill-1" points="0 180 180 180 180 0 0 0"></polygon>
                <g id="Group-18" transform="translate(21.000000, 11.000000)">
                    <path d="M49.21,16.0674 C49.21,20.5044 45.613,24.1014 41.176,24.1014 C36.739,24.1014 33.142,20.5044 33.142,16.0674 C33.142,11.6304 36.739,8.0344 41.176,8.0344 C45.613,8.0344 49.21,11.6304 49.21,16.0674 Z" id="Stroke-2" stroke="#808080" stroke-width="4" stroke-linecap="round" stroke-linejoin="round"></path>
                    <path d="M105.4473,141.9326 C105.4473,146.3696 101.8503,149.9656 97.4133,149.9656 C92.9763,149.9656 89.3793,146.3696 89.3793,141.9326 C89.3793,137.4956 92.9763,133.8986 97.4133,133.8986 C101.8503,133.8986 105.4473,137.4956 105.4473,141.9326 Z" id="Stroke-4" stroke="#808080" stroke-width="4" stroke-linecap="round" stroke-linejoin="round"></path>
                    <path d="M69.00035,155.69077 L88.3793249,144.501193 C89.3358861,143.948866 90.5590812,144.276564 91.1114074,145.233125 C91.6637337,146.189686 91.3360364,147.412881 90.3794751,147.965207 L70.0004751,159.732207 C69.3816616,160.089515 68.6192289,160.089532 68.0003999,159.732251 L-0.4156,120.232251 C-1.03440219,119.874985 -1.4156,119.214731 -1.4156,118.5002 L-1.4156,39.5002 C-1.4156,38.7856872 -1.03442157,38.1254472 -0.415644496,37.7681749 L19.5883555,26.2181749 C20.5449266,25.6658656 21.7681158,25.9935844 22.3204251,26.9501555 C22.8727344,27.9067266 22.5450156,29.1299158 21.5884445,29.6822251 L2.5844,40.6548663 L2.5844,117.3455 L69.00035,155.69077 Z" id="Stroke-6" fill="#808080" fill-rule="nonzero"></path>
                    <path d="M69.0000861,2.30989309 L51.0112488,12.6954649 L49.2362488,13.7204649 C48.2797109,14.2728318 47.056502,13.9451866 46.5041351,12.9886488 C45.9517682,12.0321109 46.2794134,10.808902 47.2359512,10.2565351 L49.0111208,9.23143718 L68.0001208,-1.73156282 C68.6189199,-2.0888167 69.3813053,-2.0888121 70.0001001,-1.73155076 L138.4161,37.7684492 C139.034902,38.1257148 139.4161,38.7859689 139.4161,39.5005 L139.4161,118.5005 C139.4161,119.215039 139.034893,119.8753 138.41608,120.232562 L118.24408,131.878562 C117.287488,132.430836 116.064311,132.103072 115.512038,131.14648 C114.959764,130.189888 115.287528,128.966711 116.24412,128.414438 L135.4161,117.345784 L135.4161,40.6552005 L69.0000861,2.30989309 Z" id="Stroke-8" fill="#808080" fill-rule="nonzero"></path>
                    <path d="M68.6900235,41.1535004 C67.1110585,42.524899 65.401967,43.896027 63.6178997,45.180283 C61.1498917,46.9568719 58.7332591,48.4258715 56.496034,49.447068 C54.201587,50.4980845 51.258004,51.5099157 47.7429651,52.5185132 C45.0468047,53.2921435 42.1675401,54.0201819 39.2895688,54.6825017 C38.6487577,54.8299743 38.0369391,54.9674621 37.4601655,55.0942714 C37.9646612,88.5850908 51.0054685,113.028304 69.0000207,118.979492 C86.9953558,113.02838 100.036329,88.5853827 100.540834,55.0943018 C99.9640433,54.9674977 99.3522062,54.8300154 98.7113755,54.6825485 C95.8333358,54.0202589 92.954003,53.2922517 90.2577791,52.5186523 C86.742366,51.5100114 83.7985233,50.498135 81.503966,49.447068 C79.2667409,48.4258715 76.8501083,46.9568719 74.3821003,45.180283 C72.598033,43.896027 70.8889415,42.524899 69.3099765,41.1535004 C69.2046485,41.0620186 69.1013065,40.9717467 69,40.8827599 C68.8986935,40.9717467 68.7953515,41.0620186 68.6900235,41.1535004 Z M70.7393308,35.7042471 C70.8164664,35.7789592 70.9768277,35.9307845 71.2128053,36.1485961 C71.6133558,36.5183114 72.0745451,36.9320214 72.5886716,37.3785622 C74.059697,38.6562106 75.6526047,39.9341296 77.3032157,41.1223175 C79.5272108,42.7232543 81.676971,44.03003 83.740034,44.974932 C85.6079396,45.8275608 88.3404303,46.76679 91.6367394,47.7125657 C94.2380896,48.458944 97.034729,49.166043 99.8326615,49.8098986 C100.812891,50.0354673 101.722724,50.2368857 102.538301,50.4113292 C103.025111,50.5154525 103.370379,50.5870604 103.550337,50.6233612 C104.716989,50.8586955 105.556,51.883849 105.556,53.074 C105.556,90.0296581 90.9109678,117.614742 69.7207575,123.994848 C69.250663,124.136388 68.7492993,124.136384 68.2792069,123.994837 C47.0898477,117.614644 32.445,90.0293508 32.445,53.074 C32.445,51.8838623 33.2839923,50.8587165 34.4506279,50.6233682 C34.630581,50.5870658 34.9758407,50.5154545 35.4626374,50.4113264 C36.2781945,50.2368749 37.1880044,50.0354473 38.168209,49.8098687 C40.966071,49.1659848 43.7626397,48.4588565 46.3639238,47.7124498 C49.6598849,46.766714 52.3921352,45.8275266 54.259966,44.974932 C56.323029,44.03003 58.4727892,42.7232543 60.6967843,41.1223175 C62.3473953,39.9341296 63.940303,38.6562106 65.4113284,37.3785622 C65.9254549,36.9320214 66.3866442,36.5183114 66.7871947,36.1485961 C67.0231723,35.9307845 67.1835336,35.7789592 67.2606692,35.7042471 C68.2301254,34.765251 69.7698746,34.765251 70.7393308,35.7042471 Z" id="Stroke-10" fill="#5DADDC" fill-rule="nonzero"></path>
                    <path d="M84.287433,69.029133 C85.2637438,68.0528223 86.8466562,68.0528223 87.822967,69.029133 C88.7992777,70.0054438 88.7992777,71.5883562 87.822967,72.564667 L69.011967,91.375667 C68.0356562,92.3519777 66.4527438,92.3519777 65.476433,91.375667 L55.287433,81.186667 C54.3111223,80.2103562 54.3111223,78.6274438 55.287433,77.651133 C56.2637438,76.6748223 57.8466562,76.6748223 58.822967,77.651133 L67.2442,86.0723661 L84.287433,69.029133 Z" id="Stroke-12" fill="#5DADDC" fill-rule="nonzero"></path>
                    <path d="M52.0552,16 C52.0552,22.075 47.1302,27 41.0552,27 C34.9802,27 30.0552,22.075 30.0552,16 C30.0552,9.925 34.9802,5 41.0552,5 C47.1302,5 52.0552,9.925 52.0552,16" id="Fill-14" fill="#009BD9"></path>
                    <path d="M108.0547,142 C108.0547,148.075 103.1297,153 97.0547,153 C90.9797,153 86.0547,148.075 86.0547,142 C86.0547,135.925 90.9797,131 97.0547,131 C103.1297,131 108.0547,135.925 108.0547,142" id="Fill-16" fill="#009BD9"></path>
                </g>
            </g>
        </g>
    </g>
</svg>