<?xml version="1.0" encoding="UTF-8"?>
<svg width="142px" height="162px" viewBox="0 0 142 162" version="1.1" xmlns="http://www.w3.org/2000/svg" xmlns:xlink="http://www.w3.org/1999/xlink">
    <!-- Generator: Sketch 59.1 (86144) - https://sketch.com -->
    <title>按需扩容</title>
    <desc>Created with Sketch.</desc>
    <g id="Page-1" stroke="none" stroke-width="1" fill="none" fill-rule="evenodd">
        <g id="网页端" transform="translate(-1469.000000, -2178.000000)">
            <g id="按需扩容" transform="translate(1450.000000, 2169.000000)">
                <polygon id="Fill-1" points="0 180 180 180 180 0 0 0"></polygon>
                <g id="Group-22" transform="translate(21.000000, 11.000000)">
                    <path d="M99.8549,98.6885 C97.1629,98.6895 94.7259,100.2865 93.6509,102.7545 L80.7409,102.7545 C80.2089,99.1205 77.6209,96.1215 74.1019,95.0645 L74.1019,83.7795 L90.3679,83.7795 C94.8509,83.7795 98.5009,80.1295 98.5009,75.6465 C98.5009,71.1625 94.8509,67.5135 90.3679,67.5135 L52.4159,67.5135 C47.9309,67.5135 44.2829,71.1625 44.2829,75.6465 C44.2829,80.1295 47.9309,83.7795 52.4159,83.7795 L68.6799,83.7795 L68.6799,95.0645 C65.1619,96.1205 62.5729,99.1195 62.0419,102.7545 L49.1319,102.7545 C47.8529,99.8095 44.6799,98.1685 41.5379,98.8255 C38.3939,99.4815 36.1439,102.2545 36.149888,105.4655 C36.1569,108.6695 38.4059,111.4315 41.5419,112.0855 C44.6779,112.7415 47.8439,111.1105 49.1319,108.1765 L62.8549,108.1765 C64.3839,111.3705 67.6209,113.5985 71.3909,113.5985 C75.1629,113.5985 78.3989,111.3705 79.9279,108.1765 L93.6509,108.1765 C94.9299,111.1225 98.1019,112.7625 101.2459,112.1065 C104.3879,111.4505 106.6379,108.6765 106.631912,105.4655 C106.631912,101.7225 103.5989,98.6885 99.8549,98.6885" id="Fill-2" fill="#009D90"></path>
                    <path d="M52.4155,78.3574 C50.9655,78.2924 49.8225,77.0974 49.8225,75.6464 C49.8225,74.1944 50.9655,73.0014 52.4155,72.9344 L90.3675,72.9344 C91.8175,73.0014 92.9605,74.1944 92.9605,75.6464 C92.9605,77.0974 91.8175,78.2924 90.3675,78.3574 L52.4155,78.3574 Z" id="Fill-4" fill="#6BBAE4"></path>
                    <path d="M71.3911,108.1768 C69.1501,108.1768 67.3251,106.3528 67.3251,104.1108 C67.3251,101.8678 69.1501,100.0438 71.3911,100.0438 C73.6331,100.0438 75.4571,101.8678 75.4571,104.1108 C75.4571,106.3528 73.6331,108.1768 71.3911,108.1768" id="Fill-6" fill="#6BBAE4"></path>
                    <path d="M51.06,94.6221 L58.81,94.6221 C60.307,94.6221 61.521,93.4091 61.521,91.9111 C61.521,90.4141 60.307,89.2011 58.81,89.2011 L51.06,89.2011 C42.83,89.1911 36.159,82.5211 36.15,74.2911 C36.113,66.9411 41.464,60.6751 48.729,59.5591 L50.341,59.3081 L50.87,57.7631 C53.876,49.0011 62.123,43.1151 71.391,43.1151 C80.658,43.1131 88.902,48.9981 91.91,57.7631 L92.441,59.3081 L94.054,59.5591 C101.318,60.6751 106.669,66.9411 106.632,74.2911 C106.632,82.5101 99.942,89.2011 91.723,89.2011 L83.482,89.2011 C81.985,89.2011 80.771,90.4141 80.771,91.9111 C80.771,93.4091 81.985,94.6221 83.482,94.6221 L91.723,94.6221 C102.935,94.6221 112.055244,85.5031 112.055244,74.2911 C112.101,64.8781 105.645,56.6791 96.484,54.5181 C92.305,44.3401 82.394,37.6951 71.393,37.6951 C60.391,37.6951 50.48,44.3401 46.302,54.5181 C37.14,56.6781 30.681,64.8771 30.7277452,74.2911 C30.7277452,85.5031 39.847,94.6221 51.06,94.6221" id="Fill-8" fill="#009D90"></path>
                    <path d="M49.2104,16.0674 C49.2104,20.5044 45.6124,24.1014 41.1764,24.1014 C36.7394,24.1014 33.1424,20.5044 33.1424,16.0674 C33.1424,11.6304 36.7394,8.0344 41.1764,8.0344 C45.6124,8.0344 49.2104,11.6304 49.2104,16.0674 Z" id="Stroke-10" stroke="#808080" stroke-width="4" stroke-linecap="round" stroke-linejoin="round"></path>
                    <path d="M105.4477,141.9326 C105.4477,146.3696 101.8497,149.9656 97.4137,149.9656 C92.9767,149.9656 89.3797,146.3696 89.3797,141.9326 C89.3797,137.4956 92.9767,133.8986 97.4137,133.8986 C101.8497,133.8986 105.4477,137.4956 105.4477,141.9326 Z" id="Stroke-12" stroke="#808080" stroke-width="4" stroke-linecap="round" stroke-linejoin="round"></path>
                    <path d="M88.3792249,144.501193 C89.3357861,143.948866 90.5589812,144.276564 91.1113074,145.233125 C91.6636337,146.189686 91.3359364,147.412881 90.3793751,147.965207 L70.0003751,159.732207 C69.3815616,160.089515 68.6191289,160.089532 68.0002999,159.732251 L-0.4157,120.232251 C-1.03450219,119.874985 -1.4157,119.214731 -1.4157,118.5002 L-1.4157,39.5002 C-1.4157,38.7856872 -1.03452157,38.1254472 -0.415744496,37.7681749 L19.5882555,26.2181749 C20.5448266,25.6658656 21.7680158,25.9935844 22.3203251,26.9501555 C22.8726344,27.9067266 22.5449156,29.1299158 21.5883445,29.6822251 L2.5843,40.6548663 L2.5843,117.3455 L69.00025,155.69077 L88.3792249,144.501193 Z" id="Stroke-14" fill="#808080" fill-rule="nonzero"></path>
                    <path d="M69.0005597,2.30987789 L51.0107488,12.6954649 L49.2357488,13.7204649 C48.2792109,14.2728318 47.056002,13.9451866 46.5036351,12.9886488 C45.9512682,12.0321109 46.2789134,10.808902 47.2354512,10.2565351 L49.0106603,9.23141437 L68.0006603,-1.73158563 C68.6194534,-2.08881725 69.3818195,-2.08880396 70.0006001,-1.73155076 L138.4166,37.7684492 C139.035402,38.1257148 139.4166,38.7859689 139.4166,39.5005 L139.4166,118.5005 C139.4166,119.215039 139.035393,119.8753 138.41658,120.232562 L118.24458,131.878562 C117.287988,132.430836 116.064811,132.103072 115.512538,131.14648 C114.960264,130.189888 115.288028,128.966711 116.24462,128.414438 L135.4166,117.345784 L135.4166,40.6552005 L69.0005597,2.30987789 Z" id="Stroke-16" fill="#808080" fill-rule="nonzero"></path>
                    <path d="M52.0551,16 C52.0551,22.075 47.1301,27 41.0551,27 C34.9801,27 30.0551,22.075 30.0551,16 C30.0551,9.925 34.9801,5 41.0551,5 C47.1301,5 52.0551,9.925 52.0551,16" id="Fill-18" fill="#009BD9"></path>
                    <path d="M108.0551,142 C108.0551,148.075 103.1301,153 97.0551,153 C90.9801,153 86.0551,148.075 86.0551,142 C86.0551,135.925 90.9801,131 97.0551,131 C103.1301,131 108.0551,135.925 108.0551,142" id="Fill-20" fill="#009BD9"></path>
                </g>
            </g>
        </g>
    </g>
</svg>