<?xml version="1.0" encoding="UTF-8"?>
<svg width="142px" height="162px" viewBox="0 0 142 162" version="1.1" xmlns="http://www.w3.org/2000/svg" xmlns:xlink="http://www.w3.org/1999/xlink">
    <!-- Generator: Sketch 59.1 (86144) - https://sketch.com -->
    <title>自主创新</title>
    <desc>Created with Sketch.</desc>
    <g id="Page-1" stroke="none" stroke-width="1" fill="none" fill-rule="evenodd">
        <g id="网页端" transform="translate(-308.000000, -1717.000000)">
            <g id="自主创新" transform="translate(289.000000, 1708.000000)">
                <polygon id="Fill-1" points="0 180 180 180 180 0 0 0"></polygon>
                <g id="Group-18" transform="translate(21.000000, 11.000000)">
                    <path d="M49.2101,16.0674 C49.2101,20.5044 45.6131,24.1014 41.1761,24.1014 C36.7391,24.1014 33.1421,20.5044 33.1421,16.0674 C33.1421,11.6304 36.7391,8.0344 41.1761,8.0344 C45.6131,8.0344 49.2101,11.6304 49.2101,16.0674 Z" id="Stroke-2" stroke="#808080" stroke-width="4" stroke-linecap="round" stroke-linejoin="round"></path>
                    <path d="M105.4474,141.9326 C105.4474,146.3696 101.8504,149.9656 97.4134,149.9656 C92.9764,149.9656 89.3794,146.3696 89.3794,141.9326 C89.3794,137.4956 92.9764,133.8986 97.4134,133.8986 C101.8504,133.8986 105.4474,137.4956 105.4474,141.9326 Z" id="Stroke-4" stroke="#808080" stroke-width="4" stroke-linecap="round" stroke-linejoin="round"></path>
                    <path d="M88.3795249,144.501193 C89.3360861,143.948866 90.5592812,144.276564 91.1116074,145.233125 C91.6639337,146.189686 91.3362364,147.412881 90.3796751,147.965207 L70.0006751,159.732207 C69.3818616,160.089515 68.6194289,160.089532 68.0005999,159.732251 L-0.4154,120.232251 C-1.03420219,119.874985 -1.4154,119.214731 -1.4154,118.5002 L-1.4154,39.5002 C-1.4154,38.7856872 -1.03422157,38.1254472 -0.415444496,37.7681749 L19.5885555,26.2181749 C20.5451266,25.6658656 21.7683158,25.9935844 22.3206251,26.9501555 C22.8729344,27.9067266 22.5452156,29.1299158 21.5886445,29.6822251 L2.5846,40.6548663 L2.5846,117.3455 L69.00055,155.69077 L88.3795249,144.501193 Z" id="Stroke-6" fill="#808080" fill-rule="nonzero"></path>
                    <path d="M69.0002597,2.30987789 L51.0104488,12.6954649 L49.2354488,13.7204649 C48.2789109,14.2728318 47.055702,13.9451866 46.5033351,12.9886488 C45.9509682,12.0321109 46.2786134,10.808902 47.2351512,10.2565351 L49.0103603,9.23141437 L68.0003603,-1.73158563 C68.6191534,-2.08881725 69.3815195,-2.08880396 70.0003001,-1.73155076 L138.4163,37.7684492 C139.035102,38.1257148 139.4163,38.7859689 139.4163,39.5005 L139.4163,118.5005 C139.4163,119.215039 139.035093,119.8753 138.41628,120.232562 L118.24428,131.878562 C117.287688,132.430836 116.064511,132.103072 115.512238,131.14648 C114.959964,130.189888 115.287728,128.966711 116.24432,128.414438 L135.4163,117.345784 L135.4163,40.6552005 L69.0002597,2.30987789 Z" id="Stroke-8" fill="#808080" fill-rule="nonzero"></path>
                    <path d="M52.0549,16 C52.0549,22.075 47.1299,27 41.0549,27 C34.9799,27 30.0549,22.075 30.0549,16 C30.0549,9.925 34.9799,5 41.0549,5 C47.1299,5 52.0549,9.925 52.0549,16" id="Fill-10" fill="#009BD9"></path>
                    <path d="M108.0549,142 C108.0549,148.075 103.1299,153 97.0549,153 C90.9799,153 86.0549,148.075 86.0549,142 C86.0549,135.925 90.9799,131 97.0549,131 C103.1299,131 108.0549,135.925 108.0549,142" id="Fill-12" fill="#009BD9"></path>
                    <path d="M70.6872,115.1084 L56.0512,106.6594 L92.8102,83.5614 L100.5472,88.3524 L100.5472,97.8694 L70.6872,115.1084 Z M40.8272,79.7494 L65.3482,94.9334 L51.1712,103.8404 L40.8272,97.8694 L40.8272,79.7494 Z M70.6872,46.1494 L85.0172,54.4234 L48.1952,77.5624 C47.9722,77.7064 47.7752,77.8834 47.6092,78.0904 L40.8272,73.8904 L40.8272,63.3884 L70.6872,46.1494 Z M70.0432,91.9834 L52.1952,80.9304 L70.2462,69.5884 L88.0942,80.6414 L70.0432,91.9834 Z M100.5472,82.4944 L74.9412,66.6374 L89.8972,57.2404 L100.5472,63.3884 L100.5472,82.4944 Z M103.0372,59.0774 L73.1772,41.8374 C71.6362,40.9474 69.7372,40.9474 68.1972,41.8374 L38.3362,59.0774 C36.7952,59.9664 35.8472,61.6104 35.8472,63.3904 L35.8472,97.8694 C35.8472,99.6474 36.7952,101.2934 38.3362,102.1814 L68.1972,119.4214 C69.7372,120.3104 71.6362,120.3104 73.1772,119.4214 L103.0372,102.1824 C104.5782,101.2934 105.527201,99.6484 105.527201,97.8694 L105.527201,63.3904 C105.5282,61.6114 104.5792,59.9664 103.0372,59.0774 L103.0372,59.0774 Z" id="Fill-14" fill="#009D90"></path>
                    <polygon id="Fill-16" fill="#6BBAE4" points="70.0744 88.5723 57.6634 80.8863 70.2154 73.0003 82.6254 80.6853"></polygon>
                </g>
            </g>
        </g>
    </g>
</svg>