<?xml version="1.0" encoding="UTF-8"?>
<svg width="142px" height="162px" viewBox="0 0 142 162" version="1.1" xmlns="http://www.w3.org/2000/svg" xmlns:xlink="http://www.w3.org/1999/xlink">
    <!-- Generator: Sketch 59.1 (86144) - https://sketch.com -->
    <title>高效共识</title>
    <desc>Created with Sketch.</desc>
    <g id="Page-1" stroke="none" stroke-width="1" fill="none" fill-rule="evenodd">
        <g id="网页端" transform="translate(-309.000000, -2178.000000)">
            <g id="高效共识" transform="translate(290.000000, 2169.000000)">
                <polygon id="Fill-1" points="0 180 180 180 180 0 0 0"></polygon>
                <g id="Group-18" transform="translate(21.000000, 11.000000)">
                    <path d="M78.3895,61.7782026 C74.2165,61.7993 70.8395,65.2123 70.8613931,69.3843 C70.8815,73.5373 74.2935,76.8983 78.4665,76.8773979 C82.6395,76.8553 86.0165,73.4603 85.9955974,69.3063 C85.9745,65.1333 82.5615,61.7573 78.3895,61.7782026 L78.3895,61.7782026 Z M78.4775,79.0824252 C73.0785,79.1093 68.6645,74.7643 68.6373755,69.3953 C68.6105,64.0263 72.9795,59.6353 78.3775,59.6081748 C83.7565,59.5813 88.1555,63.9263 88.1826249,69.2963 C88.2095,74.6643 83.8565,79.0543 78.4775,79.0824252 L78.4775,79.0824252 Z M34.2415,104.796326 C33.9515,104.7983 33.6845,104.6843 33.4905,104.4763 C33.0335,104.0343 33.0345,103.3483 33.4725,102.8933 L37.5915,98.7863 C37.7975,98.5663 38.0605,98.4533 38.3465,98.4512933 C38.6325,98.4503 38.8975,98.5613 39.0905,98.7633 C39.3105,98.9703 39.4235,99.2253 39.4325,99.5053 C39.4425,99.8193 39.3245,100.1253 39.0995,100.3643 L35.0195,104.451293 C34.8065,104.6763 34.5355,104.7953 34.2415,104.796326 L34.2415,104.796326 Z M44.5245,114.946328 C44.2395,114.9483 43.9745,114.8413 43.7805,114.6433 C43.5515,114.4333 43.4325,114.1583 43.4314746,113.8683 C43.4295,113.5773 43.5455,113.3013 43.7505,113.1113 L47.8605,108.9423 C48.0605,108.7403 48.3315,108.6273 48.6225,108.626273 C48.9165,108.6243 49.1955,108.7353 49.4075,108.9403 C49.6165,109.1463 49.7335,109.4243 49.7335,109.7183 C49.7325,110.0043 49.6195,110.2713 49.4155,110.4713 L45.2835,114.6293 C45.0805,114.8333 44.8125,114.9453 44.5245,114.946328 L44.5245,114.946328 Z M34.1795,115.155326 C33.8975,115.1573 33.6295,115.0443 33.4275,114.8383 C33.1875,114.6063 33.0625,114.3223 33.0654472,114.027293 C33.0675,113.7493 33.1855,113.4863 33.3985,113.2873 L42.7275,103.8443 C42.9285,103.6413 43.1965,103.5293 43.4815,103.527293 C43.7695,103.5263 44.0445,103.6373 44.2575,103.8423 C44.4745,104.0513 44.5945,104.3263 44.5965064,104.6163 C44.5975,104.9053 44.4805,105.1803 44.2655,105.3923 L34.9465,114.8253 C34.7375,115.0363 34.4645,115.1543 34.1795,115.155326 L34.1795,115.155326 Z M67.9885,100.9363 C68.5925,100.9543 69.1405,101.2043 69.5455,101.6393 C69.9465,102.0693 70.1545,102.6273 70.1295,103.2083 C70.0735,105.2573 69.6315,107.3053 68.8205,109.3023 C68.4605,110.0913 68.1225,110.7703 67.7965,111.3563 L68.1685,112.1813 C69.0295,112.3723 69.9135,112.4653 70.7995,112.461424 C71.5305,112.4573 72.2655,112.3853 72.9875,112.2503 C75.7145,111.7713 78.1845,110.5103 80.1205,108.6063 L80.2325,108.4943 C82.0175,106.7253 83.2485,104.4253 83.7905,101.8473 C84.3285,99.3643 84.1115,96.7523 83.1605,94.2983 C82.8435,93.5163 83.0895,92.5263 83.7425,91.9363 L84.6345,91.0893 L85.3265,90.3533 L85.4225,90.2573 C90.5755,85.1053 94.2655,78.6583 96.0945,71.6153 C97.8305,65.0713 97.9385,58.1403 96.4045,51.5753 L95.9755,51.1523 C92.9985,50.5043 89.9395,50.1823 86.8825,50.1977318 C83.2175,50.2163 79.5535,50.7163 75.9935,51.6853 C68.9705,53.6093 62.5495,57.3713 57.4265,62.5653 L56.6605,63.3033 L57.0485,63.1463 L56.6125,63.3373 L55.8715,64.1743 C55.4295,64.6923 54.8215,64.9873 54.1965,64.9903 C53.9275,64.9923 53.6615,64.9403 53.4045,64.8383 C51.9065,64.2693 50.3255,63.9883 48.6955,63.9973 C47.7395,64.0023 46.7885,64.1093 45.8695,64.3163 C43.3725,64.8403 41.0835,66.0893 39.2595,67.9283 L39.2455,67.9233 C37.2385,69.9523 35.9635,72.4893 35.5605,75.2613 C35.3045,76.8233 35.3455,78.4763 35.6795,80.0343 L36.5205,80.4003 C37.2645,79.9553 37.9275,79.6163 38.5475,79.3633 C40.4085,78.5853 42.3835,78.1313 44.5925,77.9713 C44.6845,77.9713 45.0285,77.9693 45.2205,78.0583 L45.3275,78.0943 C45.8665,78.2203 46.3235,78.5543 46.6155,79.0383 C46.9235,79.5503 47.0135,80.1793 46.8605,80.7603 C46.3735,82.5933 45.9795,84.5453 45.6895,86.5573 C45.4835,88.4743 45.3765,89.9963 45.3535,91.3633 L45.5195,91.7733 L56.3195,102.4803 L56.7385,102.6433 C58.4015,102.5793 60.0065,102.4373 61.5095,102.2243 C63.7025,101.9293 65.5975,101.5363 67.2965,101.0243 C67.5205,100.9673 67.7355,100.9353 67.9115,100.9343 L67.9885,100.9363 Z M70.9235,116.836494 C68.1245,116.8493 65.3325,116.2103 62.8505,114.9843 C62.3485,114.7403 61.9705,114.3013 61.7815,113.7483 C61.5875,113.1833 61.6245,112.5593 61.8815,112.0393 C61.9555,111.8773 62.0815,111.6993 62.2515,111.5093 C63.2895,110.3893 64.1545,109.0403 64.7455,107.6133 L64.9815,106.9923 L64.3455,106.2393 C63.7205,106.3613 63.0535,106.4593 62.4075,106.5533 L62.0845,106.6003 C60.2755,106.8583 58.3195,106.9883 56.1085,107.0003 L55.5765,107.0013 C55.0125,107.0033 54.4585,106.7873 54.0125,106.3903 L41.5955,94.1163 C41.1415,93.6383 40.9205,93.0243 40.9865,92.4003 L40.9895,92.3393 C40.9775,90.0413 41.0925,87.9703 41.3415,86.0083 L41.4165,85.4533 C41.4885,84.9113 41.5625,84.3493 41.6625,83.8053 L40.8995,83.1783 L40.3155,83.4123 C38.9025,83.9903 37.5835,84.8443 36.3935,85.9543 C35.9935,86.3253 35.4625,86.5323 34.8995,86.5343 C34.2945,86.5383 33.7155,86.2993 33.3075,85.8803 L33.2325,85.7793 C33.0965,85.5983 32.9895,85.4553 32.9425,85.3273 L32.9145,85.2633 C31.2245,81.9433 30.6355,78.2463 31.2105,74.5713 C31.7815,70.8593 33.4735,67.5003 36.1075,64.8563 C38.4435,62.4323 41.4815,60.7483 44.9025,59.9783 C46.1085,59.7223 47.3525,59.5893 48.5945,59.5823 C50.1435,59.5743 51.6945,59.7633 53.2045,60.1443 L53.7365,60.0013 L54.2665,59.4853 L54.3785,59.3303 L54.4065,59.2743 C60.0935,53.6083 67.1445,49.5133 74.8085,47.4273 C78.6925,46.3513 82.7015,45.7963 86.7295,45.7747381 C90.7555,45.7553 94.7715,46.2693 98.6625,47.3043 C99.4345,47.4933 100.0355,48.0773 100.2515,48.8353 L100.2595,48.9183 C102.3685,56.7053 102.4045,64.9363 100.3655,72.7223 C98.3235,80.5133 94.2465,87.6513 88.5775,93.3623 L88.3835,93.5763 L88.0325,93.8953 L87.8695,94.4623 C88.6085,97.1213 88.6945,99.9963 88.1185,102.7773 C87.4185,106.1083 85.7715,109.1523 83.3525,111.5793 L83.1885,111.7633 C80.5735,114.3203 77.2775,116.0073 73.6855,116.6133 C72.7775,116.7563 71.8455,116.8313 70.9235,116.836494 L70.9235,116.836494 Z" id="Fill-2" fill="#DF4C3B"></path>
                    <path d="M78.1404,59.6709 C72.5634,59.6709 68.0404,64.1919 68.0404,69.7709 C68.0404,75.3489 72.5634,79.8689 78.1404,79.8689 C83.7174,79.8689 88.2404,75.3489 88.2404,69.7709 C88.2404,64.1919 83.7174,59.6709 78.1404,59.6709" id="Fill-4" fill="#F39A19"></path>
                    <path d="M49.2098,16.0674 C49.2098,20.5044 45.6128,24.1014 41.1768,24.1014 C36.7388,24.1014 33.1428,20.5044 33.1428,16.0674 C33.1428,11.6304 36.7388,8.0344 41.1768,8.0344 C45.6128,8.0344 49.2098,11.6304 49.2098,16.0674 Z" id="Stroke-6" stroke="#808080" stroke-width="4" stroke-linecap="round" stroke-linejoin="round"></path>
                    <path d="M105.4471,141.9326 C105.4471,146.3696 101.8501,149.9656 97.4141,149.9656 C92.9761,149.9656 89.3801,146.3696 89.3801,141.9326 C89.3801,137.4956 92.9761,133.8986 97.4141,133.8986 C101.8501,133.8986 105.4471,137.4956 105.4471,141.9326 Z" id="Stroke-8" stroke="#808080" stroke-width="4" stroke-linecap="round" stroke-linejoin="round"></path>
                    <path d="M88.3796617,144.501171 C89.3362347,143.948865 90.5594227,144.276589 91.1117287,145.233162 C91.6640346,146.189735 91.3363114,147.412923 90.3797383,147.965229 L69.9997383,159.732229 C69.3809304,160.089516 68.6185158,160.089524 67.9996999,159.732251 L-0.4163,120.232251 C-1.03510219,119.874985 -1.4163,119.214731 -1.4163,118.5002 L-1.4163,39.5002 C-1.4163,38.7856717 -1.03510521,38.1254199 -0.4163,37.7681532 L19.588693,26.2181532 C20.545276,25.6658646 21.7684581,25.99361 22.3207468,26.950193 C22.8730354,27.906776 22.54529,29.1299581 21.588707,29.6822468 L2.5837,40.6548951 L2.5837,117.3455 L68.9996745,155.690784 L88.3796617,144.501171 Z" id="Stroke-10" fill="#808080" fill-rule="nonzero"></path>
                    <path d="M68.9999861,2.30989309 L51.0107263,12.6957088 L49.2347263,13.7207088 C48.2780539,14.2728424 47.0549248,13.9448988 46.5027912,12.9882263 C45.9506576,12.0315539 46.2786012,10.8084248 47.2352737,10.2562912 L49.0110208,9.23143718 L68.0000208,-1.73156282 C68.6188199,-2.0888167 69.3812053,-2.0888121 70.0000001,-1.73155076 L138.416,37.7684492 C139.034802,38.1257148 139.416,38.7859689 139.416,39.5005 L139.416,118.5005 C139.416,119.215039 139.034793,119.8753 138.41598,120.232562 L118.24398,131.878562 C117.287388,132.430836 116.064211,132.103072 115.511938,131.14648 C114.959664,130.189888 115.287428,128.966711 116.24402,128.414438 L135.416,117.345784 L135.416,40.6552005 L68.9999861,2.30989309 Z" id="Stroke-12" fill="#808080" fill-rule="nonzero"></path>
                    <path d="M52.0555,16 C52.0555,22.075 47.1305,27 41.0555,27 C34.9805,27 30.0555,22.075 30.0555,16 C30.0555,9.925 34.9805,5 41.0555,5 C47.1305,5 52.0555,9.925 52.0555,16" id="Fill-14" fill="#009BD9"></path>
                    <path d="M108.0555,142 C108.0555,148.075 103.1305,153 97.0555,153 C90.9805,153 86.0555,148.075 86.0555,142 C86.0555,135.925 90.9805,131 97.0555,131 C103.1305,131 108.0555,135.925 108.0555,142" id="Fill-16" fill="#009BD9"></path>
                </g>
            </g>
        </g>
    </g>
</svg>