<?xml version="1.0" encoding="UTF-8"?>
<svg width="142px" height="162px" viewBox="0 0 142 162" version="1.1" xmlns="http://www.w3.org/2000/svg" xmlns:xlink="http://www.w3.org/1999/xlink">
    <!-- Generator: Sketch 59.1 (86144) - https://sketch.com -->
    <title>灵活易用</title>
    <desc>Created with Sketch.</desc>
    <g id="Page-1" stroke="none" stroke-width="1" fill="none" fill-rule="evenodd">
        <g id="网页端" transform="translate(-888.000000, -1717.000000)">
            <g id="灵活易用" transform="translate(869.000000, 1708.000000)">
                <polygon id="Fill-1" points="0 180 180 180 180 0 0 0"></polygon>
                <g id="Group-18" transform="translate(21.000000, 11.000000)">
                    <path d="M96.57,107.2012 C88.963,114.8072 70.325,109.5202 55.277,94.4712 C54.291,93.4842 52.693,93.4842 51.707,94.4712 C50.721,95.4562 50.721,97.0552 51.707,98.0402 C55.465,101.8102 59.63,105.1522 64.124,108.0062 C54.874,111.7852 46.837,111.4872 42.547,107.1972 C38.146,102.7972 38.086,94.7032 41.706,85.7522 C41.928,85.7712 42.141,85.8202 42.368,85.8202 C46.551,85.8202 49.942,82.4292 49.942,78.2462 C49.942,76.5872 49.394,75.0672 48.49,73.8192 C50.549,71.0132 52.818,68.3692 55.277,65.9072 C56.263,64.9212 56.263,63.3222 55.277,62.3372 C54.291,61.3512 52.693,61.3512 51.707,62.3372 C49.03,65.0182 46.565,67.9032 44.332,70.9642 C43.694,70.7782 43.032,70.6802 42.368,70.6712 C41.707,70.6802 41.051,70.7772 40.416,70.9562 C38.151,63.3472 38.856,56.8682 42.547,53.1772 C47.468,48.2562 57.322,48.5872 68.278,54.3012 C68.682,54.4992 69.134,54.5822 69.583,54.5402 C70.019,54.5732 70.455,54.4882 70.847,54.2962 C81.8,48.5872 91.649,48.2562 96.57,53.1772 C100.989,57.5962 101.031,65.7382 97.363,74.7332 C95.746,72.1882 93.965,69.7512 92.031,67.4372 C92.546,66.5232 92.864,65.4822 92.864,64.3592 C92.864,60.8732 90.038,58.0472 86.552,58.0472 C83.066,58.0472 80.24,60.8732 80.24,64.3592 C80.24,67.8462 83.066,70.6712 86.552,70.6712 C87.054,70.6712 87.537,70.5972 88.004,70.4872 C90.549,73.5012 92.806,76.7502 94.742,80.1872 C92.255,84.6582 88.905,89.1882 84.787,93.4712 C84.534,93.4392 84.287,93.3942 84.028,93.3942 C81.123,93.3902 78.591,95.3702 77.893,98.1892 C77.195,101.0082 78.509,103.9392 81.08,105.2932 C83.65,106.6442 86.811,106.0692 88.739,103.8972 C90.668,101.7252 90.865,98.5182 89.218,96.1262 C92.254,92.8942 94.981,89.3852 97.363,85.6432 C101.029,94.6372 100.989,102.7812 96.57,107.2012 M100.14,49.6062 C93.518,42.9842 81.863,43.2072 69.558,49.3042 C57.254,43.2072 45.597,42.9842 38.974,49.6062 C33.47,55.1112 32.702,64.0892 36.083,74.0132 C34.031,77.0572 34.465,81.1362 37.108,83.6812 C32.695,94.4822 32.89,104.6822 38.977,110.7702 C45.599,117.3922 57.259,117.1742 69.573,111.0682 C81.629,117.0392 93.402,117.5092 100.14,110.7702 C106.882,104.0292 106.407,92.2512 100.431,80.1892 C106.407,68.1262 106.882,56.3472 100.14,49.6062" id="Fill-2" fill="#FED641"></path>
                    <path d="M70.1408,70.6709 C64.5628,70.6709 60.0408,75.1919 60.0408,80.7709 C60.0408,86.3489 64.5628,90.8689 70.1408,90.8689 C75.7178,90.8689 80.2408,86.3489 80.2408,80.7709 C80.2408,75.1919 75.7178,70.6709 70.1408,70.6709" id="Fill-4" fill="#F39A19"></path>
                    <path d="M49.2101,16.0674 C49.2101,20.5044 45.6131,24.1014 41.1761,24.1014 C36.7391,24.1014 33.1421,20.5044 33.1421,16.0674 C33.1421,11.6304 36.7391,8.0344 41.1761,8.0344 C45.6131,8.0344 49.2101,11.6304 49.2101,16.0674 Z" id="Stroke-6" stroke="#808080" stroke-width="4" stroke-linecap="round" stroke-linejoin="round"></path>
                    <path d="M105.4474,141.9326 C105.4474,146.3696 101.8504,149.9656 97.4134,149.9656 C92.9764,149.9656 89.3794,146.3696 89.3794,141.9326 C89.3794,137.4956 92.9764,133.8986 97.4134,133.8986 C101.8504,133.8986 105.4474,137.4956 105.4474,141.9326 Z" id="Stroke-8" stroke="#808080" stroke-width="4" stroke-linecap="round" stroke-linejoin="round"></path>
                    <path d="M88.3795249,144.501193 C89.3360861,143.948866 90.5592812,144.276564 91.1116074,145.233125 C91.6639337,146.189686 91.3362364,147.412881 90.3796751,147.965207 L70.0006751,159.732207 C69.3818616,160.089515 68.6194289,160.089532 68.0005999,159.732251 L-0.4154,120.232251 C-1.03420219,119.874985 -1.4154,119.214731 -1.4154,118.5002 L-1.4154,39.5002 C-1.4154,38.7856872 -1.03422157,38.1254472 -0.415444496,37.7681749 L19.5885555,26.2181749 C20.5451266,25.6658656 21.7683158,25.9935844 22.3206251,26.9501555 C22.8729344,27.9067266 22.5452156,29.1299158 21.5886445,29.6822251 L2.5846,40.6548663 L2.5846,117.3455 L69.00055,155.69077 L88.3795249,144.501193 Z" id="Stroke-10" fill="#808080" fill-rule="nonzero"></path>
                    <path d="M69.0002597,2.30987789 L51.0104488,12.6954649 L49.2354488,13.7204649 C48.2789109,14.2728318 47.055702,13.9451866 46.5033351,12.9886488 C45.9509682,12.0321109 46.2786134,10.808902 47.2351512,10.2565351 L49.0103603,9.23141437 L68.0003603,-1.73158563 C68.6191534,-2.08881725 69.3815195,-2.08880396 70.0003001,-1.73155076 L138.4163,37.7684492 C139.035102,38.1257148 139.4163,38.7859689 139.4163,39.5005 L139.4163,118.5005 C139.4163,119.215039 139.035093,119.8753 138.41628,120.232562 L118.24428,131.878562 C117.287688,132.430836 116.064511,132.103072 115.512238,131.14648 C114.959964,130.189888 115.287728,128.966711 116.24432,128.414438 L135.4163,117.345784 L135.4163,40.6552005 L69.0002597,2.30987789 Z" id="Stroke-12" fill="#808080" fill-rule="nonzero"></path>
                    <path d="M52.0549,16 C52.0549,22.075 47.1299,27 41.0549,27 C34.9799,27 30.0549,22.075 30.0549,16 C30.0549,9.925 34.9799,5 41.0549,5 C47.1299,5 52.0549,9.925 52.0549,16" id="Fill-14" fill="#009BD9"></path>
                    <path d="M108.0549,142 C108.0549,148.075 103.1299,153 97.0549,153 C90.9799,153 86.0549,148.075 86.0549,142 C86.0549,135.925 90.9799,131 97.0549,131 C103.1299,131 108.0549,135.925 108.0549,142" id="Fill-16" fill="#009BD9"></path>
                </g>
            </g>
        </g>
    </g>
</svg>