<?xml version="1.0" encoding="UTF-8"?>
<svg width="142px" height="162px" viewBox="0 0 142 162" version="1.1" xmlns="http://www.w3.org/2000/svg" xmlns:xlink="http://www.w3.org/1999/xlink">
    <!-- Generator: Sketch 59.1 (86144) - https://sketch.com -->
    <title>无间跨链</title>
    <desc>Created with Sketch.</desc>
    <g id="Page-1" stroke="none" stroke-width="1" fill="none" fill-rule="evenodd">
        <g id="网页端" transform="translate(-889.000000, -2178.000000)">
            <g id="无间跨链" transform="translate(870.000000, 2169.000000)">
                <polygon id="Fill-1" points="0 180 180 180 180 0 0 0"></polygon>
                <g id="Group-18" transform="translate(21.000000, 11.000000)">
                    <path d="M77.1412,65.6709 C71.5632,65.6709 67.0412,70.1919 67.0412,75.7709 C67.0412,81.3489 71.5632,85.8689 77.1412,85.8689 C82.7182,85.8689 87.2402,81.3489 87.2402,75.7709 C87.2402,70.1919 82.7182,65.6709 77.1412,65.6709" id="Fill-2" fill="#FED641"></path>
                    <path d="M35.8678,68.0889 L47.4988,68.0889 C56.1658,68.0889 57.2358,60.8599 57.8768,56.5419 C58.4128,52.8999 58.7408,52.2499 59.3938,52.2499 L83.3018,52.2499 C84.4708,53.7979 86.3098,54.8139 88.3978,54.8139 C91.7698,54.8129 94.5628,52.1989 94.7888,48.8359 C95.0138,45.4719 92.5958,42.5089 89.2548,42.0589 C85.9138,41.6079 82.7948,43.8219 82.1208,47.1249 L59.3938,47.1249 C54.0878,47.1249 53.3158,52.3399 52.8048,55.7919 C52.0528,60.8889 51.3608,62.9639 47.4988,62.9639 L35.8678,62.9639 C34.4528,62.9639 33.3048,64.1109 33.3048,65.5269 C33.3048,66.9429 34.4528,68.0889 35.8678,68.0889 M76.8678,70.1878997 C78.6988,70.1878997 80.3908,71.1659 81.3058,72.7519 C82.2218,74.3379 82.2208,76.2919 81.3058,77.8779 C80.3888,79.4639 78.6968,80.4419 76.8648,80.4409008 C74.0338,80.4399 71.7398,78.1439 71.7398,75.3129 C71.7408,72.4819 74.0358,70.1869 76.8678,70.1878997 M35.8678,77.8749 L66.6588,77.8749 C66.7658,77.8749 66.8578,77.8259 66.9608,77.8149 C68.0978,82.3609 72.1808,85.5549 76.8678,85.5639 C82.5288,85.5639 87.1178,80.9739 87.1178,75.3129 C87.1178,69.6519 82.5288,65.0629 76.8678,65.0629 C72.1808,65.0709 68.0978,68.2649 66.9608,72.8119 C66.8578,72.7989 66.7658,72.7499 66.6588,72.7499 L35.8678,72.7499 C34.4528,72.7499 33.3048,73.8979 33.3048,75.3129 C33.3048,76.7279 34.4528,77.8749 35.8678,77.8749 M94.8058,111.1879 C92.9728,111.1879 91.2818,110.2099 90.3658,108.6229 C89.4508,107.0369 89.4508,105.0829 90.3668,103.4969 C91.2838,101.9109 92.9758,100.9349 94.8068,100.9349 C97.6388,100.9359 99.9328,103.2319 99.9318003,106.0629 C99.9308,108.8939 97.6358,111.1889 94.8058,111.1879 M94.8058,95.8129 C89.9518,95.8139 85.7648,99.2169 84.7718,103.9669 L59.2838,103.9609 C58.6148,103.5159 58.2078,100.4689 57.9678,98.3749 L65.3638,98.3749 C66.5328,99.9229 68.3728,100.9379 70.4618,100.9379 C73.8328,100.9369 76.6268,98.3229 76.8518,94.9599 C77.0778,91.5969 74.6578,88.6339 71.3168,88.1839 C67.9758,87.7319 64.8568,89.9469 64.1828,93.2509 L57.2768,93.2509 C56.3468,88.1939 54.2078,82.9999 47.4958,82.9999 L35.8678,82.9999 C34.4528,82.9999 33.3048,84.1479 33.3048,85.5639 C33.3048,86.9779 34.4528,88.1249 35.8678,88.1249 L47.4988,88.1249 C50.0878,88.1249 51.2738,89.7089 52.0398,93.2509 L35.8678,93.2509 C34.4528,93.2509 33.3048,94.3979 33.3048,95.8129 C33.3048,97.2279 34.4528,98.3749 35.8678,98.3749 L52.8078,98.3749 C53.3468,103.1849 54.0558,109.0919 59.3938,109.0919 L84.8728,109.0919 C84.9368,109.0919 84.9878,109.0609 85.0498,109.0559 C86.3388,113.2449 90.1918,116.3129 94.8058,116.3129 C100.4658,116.3129 105.0558,111.7229 105.0558,106.0629 C105.0558,100.4019 100.4658,95.8129 94.8058,95.8129" id="Fill-4" fill="#009BD9"></path>
                    <path d="M49.2106,16.0674 C49.2106,20.5044 45.6126,24.1014 41.1766,24.1014 C36.7386,24.1014 33.1426,20.5044 33.1426,16.0674 C33.1426,11.6304 36.7386,8.0344 41.1766,8.0344 C45.6126,8.0344 49.2106,11.6304 49.2106,16.0674 Z" id="Stroke-6" stroke="#808080" stroke-width="4" stroke-linecap="round" stroke-linejoin="round"></path>
                    <path d="M105.4479,141.9326 C105.4479,146.3696 101.8499,149.9656 97.4139,149.9656 C92.9759,149.9656 89.3799,146.3696 89.3799,141.9326 C89.3799,137.4956 92.9759,133.8986 97.4139,133.8986 C101.8499,133.8986 105.4479,137.4956 105.4479,141.9326 Z" id="Stroke-8" stroke="#808080" stroke-width="4" stroke-linecap="round" stroke-linejoin="round"></path>
                    <path d="M68.9994745,155.690784 L88.3794617,144.501171 C89.3360347,143.948865 90.5592227,144.276589 91.1115287,145.233162 C91.6638346,146.189735 91.3361114,147.412923 90.3795383,147.965229 L69.9995383,159.732229 C69.3807304,160.089516 68.6183158,160.089524 67.9994999,159.732251 L-0.4165,120.232251 C-1.03530219,119.874985 -1.4165,119.214731 -1.4165,118.5002 L-1.4165,39.5002 C-1.4165,38.7856717 -1.03530521,38.1254199 -0.4165,37.7681532 L19.588493,26.2181532 C20.545076,25.6658646 21.7682581,25.99361 22.3205468,26.950193 C22.8728354,27.906776 22.54509,29.1299581 21.588507,29.6822468 L2.5835,40.6548951 L2.5835,117.3455 L68.9994745,155.690784 Z" id="Stroke-10" fill="#808080" fill-rule="nonzero"></path>
                    <path d="M68.9997861,2.30989309 L51.0109488,12.6954649 L49.2359488,13.7204649 C48.2794109,14.2728318 47.056202,13.9451866 46.5038351,12.9886488 C45.9514682,12.0321109 46.2791134,10.808902 47.2356512,10.2565351 L49.0108208,9.23143718 L67.9998208,-1.73156282 C68.6186199,-2.0888167 69.3810053,-2.0888121 69.9998001,-1.73155076 L138.4158,37.7684492 C139.034602,38.1257148 139.4158,38.7859689 139.4158,39.5005 L139.4158,118.5005 C139.4158,119.215039 139.034593,119.8753 138.41578,120.232562 L118.24378,131.878562 C117.287188,132.430836 116.064011,132.103072 115.511738,131.14648 C114.959464,130.189888 115.287228,128.966711 116.24382,128.414438 L135.4158,117.345784 L135.4158,40.6552005 L68.9997861,2.30989309 Z" id="Stroke-12" fill="#808080" fill-rule="nonzero"></path>
                    <path d="M52.0553,16 C52.0553,22.075 47.1303,27 41.0553,27 C34.9803,27 30.0553,22.075 30.0553,16 C30.0553,9.925 34.9803,5 41.0553,5 C47.1303,5 52.0553,9.925 52.0553,16" id="Fill-14" fill="#009BD9"></path>
                    <path d="M108.0553,142 C108.0553,148.075 103.1303,153 97.0553,153 C90.9803,153 86.0553,148.075 86.0553,142 C86.0553,135.925 90.9803,131 97.0553,131 C103.1303,131 108.0553,135.925 108.0553,142" id="Fill-16" fill="#009BD9"></path>
                </g>
            </g>
        </g>
    </g>
</svg>