<?xml version="1.0" encoding="UTF-8"?>
<svg width="41px" height="43px" viewBox="0 0 41 43" version="1.1" xmlns="http://www.w3.org/2000/svg" xmlns:xlink="http://www.w3.org/1999/xlink">
    <!-- Generator: Sketch 51 (57462) - http://www.bohemiancoding.com/sketch -->
    <title>产品溯源</title>
    <desc>Created with Sketch.</desc>
    <defs></defs>
    <g id="Page-1" stroke="none" stroke-width="1" fill="none" fill-rule="evenodd">
        <g id="Artboard-2" transform="translate(-43.000000, -3752.000000)">
            <g id="产品溯源" transform="translate(41.000000, 3751.000000)">
                <polygon id="Fill-1" points="0 45 45 45 45 0 0 0"></polygon>
                <path d="M36.178,40.3278 L36.178,40.3368 C36.149,40.3368 36.12,40.3328 36.091,40.3318 C36.062,40.3328 36.034,40.3368 36.005,40.3368 L36.005,40.3278 C34.096,40.2368 32.576,38.6658 32.576,36.7348 C32.576,34.8048 34.096,33.2338 36.005,33.1428 L36.005,33.1338 C36.034,33.1338 36.062,33.1378 36.091,33.1388 C36.12,33.1378 36.149,33.1338 36.178,33.1338 L36.178,33.1428 C38.086,33.2338 39.606,34.8048 39.606,36.7348 C39.606,38.6658 38.086,40.2368 36.178,40.3278 M11.393,28.4758 L11.393,28.4908 C11.347,28.4908 11.303,28.4848 11.257,28.4828 C11.211,28.4848 11.166,28.4908 11.12,28.4908 L11.12,28.4758 C8.115,28.3328 5.72,25.8578 5.72,22.8158 C5.72,19.7748 8.115,17.2998 11.12,17.1558 L11.12,17.1418 C11.166,17.1418 11.211,17.1478 11.257,17.1488 C11.303,17.1478 11.347,17.1418 11.393,17.1418 L11.393,17.1558 C14.399,17.2998 16.794,19.7748 16.794,22.8158 C16.794,25.8578 14.399,28.3328 11.393,28.4758 M31.575,4.6698 L31.575,4.6608 C31.605,4.6608 31.633,4.6648 31.662,4.6658 C31.691,4.6648 31.72,4.6608 31.749,4.6608 L31.749,4.6698 C33.657,4.7608 35.177,6.3318 35.177,8.2628 C35.177,10.1928 33.657,11.7648 31.749,11.8548 L31.749,11.8638 C31.72,11.8638 31.691,11.8608 31.662,11.8598 C31.633,11.8608 31.605,11.8638 31.575,11.8638 L31.575,11.8548 C29.668,11.7648 28.147,10.1928 28.147,8.2628 C28.147,6.3318 29.668,4.7608 31.575,4.6698 M39.687,31.1048 C36.821,29.2188 32.994,29.7868 30.799,32.4248 L19.512,26.0768 C20.002,24.9478 20.254,23.7308 20.252,22.4998 C20.252,20.9898 19.881,19.5668 19.221,18.3158 L26.968,13.2658 C29.515,15.5658 33.384,15.5858 35.954,13.3118 C38.524,11.0378 38.977,7.1968 37.005,4.3878 C35.033,1.5788 31.266,0.6998 28.254,2.3448 C25.242,3.9898 23.947,7.6348 25.245,10.8118 L17.4,15.9268 C14.739,13.4418 10.84,12.8078 7.529,14.3208 C4.217,15.8338 2.144,19.1968 2.281,22.8348 C2.417,26.4738 4.736,29.6708 8.151,30.9318 C11.567,32.1928 15.405,31.2688 17.873,28.5928 L29.442,35.0998 C28.608,38.4288 30.408,41.8528 33.622,43.0538 C36.837,44.2548 40.441,42.8488 41.994,39.7888 C43.548,36.7288 42.554,32.9908 39.687,31.1048" id="Fill-2" fill="#0033A1"></path>
            </g>
        </g>
    </g>
</svg>