<?xml version="1.0" encoding="UTF-8"?>
<svg width="37px" height="41px" viewBox="0 0 37 41" version="1.1" xmlns="http://www.w3.org/2000/svg" xmlns:xlink="http://www.w3.org/1999/xlink">
    <!-- Generator: Sketch 51 (57462) - http://www.bohemiancoding.com/sketch -->
    <title>供应链金融</title>
    <desc>Created with Sketch.</desc>
    <defs></defs>
    <g id="Page-1" stroke="none" stroke-width="1" fill="none" fill-rule="evenodd">
        <g id="Artboard-2" transform="translate(-25.000000, -3591.000000)">
            <g id="供应链金融" transform="translate(21.000000, 3589.000000)">
                <polygon id="Fill-1" points="0 45 45 45 45 0 0 0"></polygon>
                <g id="Group-8" transform="translate(4.000000, 2.000000)" fill="#0033A1">
                    <path d="M29.5226,36.483 L15.9736,36.483 C12.8786,36.48 10.3706,33.972 10.3666,30.876 C10.3686,29.249 11.0766,27.702 12.3076,26.637 C13.5386,25.572 15.1716,25.094 16.7826,25.328 L17.6616,25.456 L18.1266,24.698 C19.2046,22.925 21.1316,21.844 23.2066,21.851 C26.4226,21.851 29.0926,24.465 29.1596,27.678 L29.1836,28.819 L30.3126,28.987 C32.4686,29.307 34.0326,30.871 34.0326,32.705 C34.0326,34.788 32.0096,36.483 29.5226,36.483 M31.7706,26.547 C31.1546,22.381 27.5186,19.15 23.2066,19.15 C20.4956,19.139 17.9396,20.409 16.3086,22.575 C14.0496,22.486 11.8516,23.32 10.2216,24.886 C8.5906,26.452 7.6676,28.614 7.6656,30.875 C7.6656,35.455 11.3916,39.183 15.9956,39.183 L29.5236,39.183 C33.5006,39.183 36.7356,36.276 36.7356,32.704 C36.7336,29.854 34.7026,27.4 31.7706,26.547" id="Fill-2"></path>
                    <path d="M6.9279,38.0597 L4.4449,38.0597 C3.6289,38.0597 2.9659,37.3597 2.9659,36.5007 L2.9659,4.4987 C2.9659,3.6407 3.6289,2.9407 4.4449,2.9407 L31.2019,2.9407 C32.0189,2.9407 32.6819,3.6407 32.6819,4.4987 L32.6819,21.8457 C32.6819,22.5917 33.2869,23.1967 34.0329,23.1967 C34.7789,23.1967 35.3839,22.5917 35.3839,21.8457 L35.3839,4.4987 C35.3839,2.1497 33.5079,0.2387 31.2019,0.2387 L4.4449,0.2387 C2.1409,0.2387 0.2639,2.1497 0.2639,4.4987 L0.2639,36.5007 C0.2639,38.8497 2.1409,40.7607 4.4449,40.7607 L6.9259,40.7607 C7.6729,40.7617 8.2769,40.1567 8.2779,39.4107 C8.2779,38.6647 7.6739,38.0597 6.9279,38.0597" id="Fill-4"></path>
                    <path d="M8.3688,13.7467 C7.6228,13.7467 7.0178,14.3507 7.0178,15.0977 C7.0178,15.8437 7.6228,16.4477 8.3688,16.4477 L16.4738,16.4477 C17.2198,16.4477 17.8238,15.8437 17.8238,15.0977 C17.8238,14.3507 17.2198,13.7467 16.4738,13.7467 L8.3688,13.7467 Z M24.5778,8.3437 C24.5778,7.5977 23.9728,6.9927 23.2268,6.9927 L8.3688,6.9927 C7.6228,6.9927 7.0178,7.5977 7.0178,8.3437 C7.0178,9.0897 7.6228,9.6937 8.3688,9.6937 L23.2268,9.6937 C23.9728,9.6937 24.5778,9.0897 24.5778,8.3437 Z" id="Fill-6"></path>
                </g>
            </g>
        </g>
    </g>
</svg>