<?xml version="1.0" encoding="UTF-8"?>
<svg width="41px" height="41px" viewBox="0 0 41 41" version="1.1" xmlns="http://www.w3.org/2000/svg" xmlns:xlink="http://www.w3.org/1999/xlink">
    <!-- Generator: Sketch 51 (57462) - http://www.bohemiancoding.com/sketch -->
    <title>政务上链</title>
    <desc>Created with Sketch.</desc>
    <defs></defs>
    <g id="Page-1" stroke="none" stroke-width="1" fill="none" fill-rule="evenodd">
        <g id="Artboard-2" transform="translate(-43.000000, -3277.000000)">
            <g id="政务上链" transform="translate(41.000000, 3275.000000)" fill="#0033A1">
                <polygon id="Fill-1" points="0 45 45 45 45 0 0 0"></polygon>
                <path d="M25.3939,10.9232 C24.3599,10.9232 23.4039,10.3712 22.8879,9.4752 C22.3709,8.5792 22.3709,7.4762 22.8879,6.5802 C23.4049,5.6842 24.3609,5.1332 25.3949,5.1332 C26.9939,5.1332 28.2899,6.4302 28.2899,8.0292 C28.2899,9.6282 26.9929,10.9232 25.3939,10.9232 M38.4169,6.5822 L30.9779,6.5822 C30.3239,4.0312 28.0269,2.2452 25.3939,2.2412 C22.1969,2.2412 19.6059,4.8322 19.6059,8.0292 C19.6059,11.2262 22.1969,13.8172 25.3939,13.8172 C28.0269,13.8132 30.3239,12.0272 30.9779,9.4762 L38.4169,9.4762 C39.2169,9.4762 39.8649,10.1242 39.8649,10.9232 L39.8649,23.9462 C39.8649,24.7462 39.2169,25.3942 38.4169,25.3942 L24.6709,25.3942 C23.8709,25.3942 23.2239,26.0412 23.2239,26.8402 C23.2239,27.6402 23.8709,28.2882 24.6709,28.2882 L38.4169,28.2882 C40.8149,28.2882 42.7589,26.3442 42.7589,23.9462 L42.7589,10.9232 C42.7589,8.5252 40.8149,6.5822 38.4169,6.5822" id="Fill-2" fill="#0033A1"></path>
                <path d="M36.9706,39.8642 C35.9356,39.8642 34.9806,39.3122 34.4636,38.4162 C33.9466,37.5202 33.9476,36.4172 34.4646,35.5212 C34.9816,34.6262 35.9376,34.0742 36.9716,34.0742 C38.5706,34.0752 39.8666,35.3712 39.8666,36.9702 C39.8656,38.5692 38.5696,39.8642 36.9706,39.8642 M10.9236,28.2882 C10.9236,27.2542 11.4756,26.2982 12.3716,25.7812 C13.2676,25.2642 14.3706,25.2642 15.2666,25.7822 C16.1616,26.2992 16.7136,27.2552 16.7136,28.2892 C16.7126,29.8882 15.4166,31.1832 13.8176,31.1832 C12.2196,31.1832 10.9236,29.8862 10.9236,28.2882 M42.7446,36.5742 C42.5366,33.5382 40.0136,31.1822 36.9706,31.1822 C34.3756,31.1822 32.2046,32.9012 31.4706,35.2542 L16.7116,35.2542 C15.9386,35.2512 15.3056,34.6402 15.2766,33.8672 C18.1026,33.1462 19.9466,30.4312 19.5746,27.5382 C19.2036,24.6452 16.7346,22.4842 13.8176,22.4992 C11.6796,22.4992 9.8356,23.6702 8.8326,25.3942 L6.5826,25.3942 C5.7836,25.3942 5.1356,24.7462 5.1356,23.9472 L5.1356,10.9232 C5.1356,10.1242 5.7836,9.4762 6.5826,9.4762 L15.9886,9.4762 C16.7876,9.4762 17.4356,8.8282 17.4356,8.0292 C17.4356,7.2302 16.7876,6.5822 15.9886,6.5822 L6.5826,6.5822 C4.1846,6.5822 2.2416,8.5252 2.2416,10.9232 L2.2416,23.9472 C2.2416,26.3442 4.1846,28.2882 6.5826,28.2882 L8.0296,28.2882 C8.0336,30.9242 9.8236,33.2222 12.3776,33.8732 C12.4116,36.2432 14.3416,38.1472 16.7116,38.1502 L31.3036,38.1502 C31.9236,41.1292 34.7446,43.1192 37.7606,42.7042 C40.7746,42.2892 42.9526,39.6112 42.7446,36.5742" id="Fill-4" fill="#0033A1"></path>
            </g>
        </g>
    </g>
</svg>