<?xml version="1.0" encoding="UTF-8"?>
<svg width="41px" height="39px" viewBox="0 0 41 39" version="1.1" xmlns="http://www.w3.org/2000/svg" xmlns:xlink="http://www.w3.org/1999/xlink">
    <!-- Generator: Sketch 51 (57462) - http://www.bohemiancoding.com/sketch -->
    <title>数字身份</title>
    <desc>Created with Sketch.</desc>
    <defs></defs>
    <g id="Page-1" stroke="none" stroke-width="1" fill="none" fill-rule="evenodd">
        <g id="Artboard-2" transform="translate(-43.000000, -3910.000000)">
            <g id="数字身份" transform="translate(41.000000, 3907.000000)">
                <polygon id="Fill-1" points="0 45 45 45 45 0 0 0"></polygon>
                <g id="Group-6" transform="translate(2.000000, 3.000000)" fill="#0033A1">
                    <path d="M11.0942,6.4764 L8.2002,6.4764 C7.4012,6.4764 6.7532,7.1244 6.7532,7.9234 C6.7532,8.7224 7.4012,9.3704 8.2002,9.3704 L11.0942,9.3704 C11.8932,9.3704 12.5412,8.7224 12.5412,7.9234 C12.5412,7.1244 11.8932,6.4764 11.0942,6.4764 M11.0942,18.0534 L8.2002,18.0534 C7.4012,18.0534 6.7532,18.7004 6.7532,19.4994 C6.7532,20.2994 7.4012,20.9464 8.2002,20.9464 L11.0942,20.9464 C11.8932,20.9464 12.5412,20.2994 12.5412,19.4994 C12.5412,18.7004 11.8932,18.0534 11.0942,18.0534 M11.0942,29.6294 L8.2002,29.6294 C7.4012,29.6294 6.7532,30.2774 6.7532,31.0764 C6.7532,31.8754 7.4012,32.5234 8.2002,32.5234 L11.0942,32.5234 C11.8932,32.5234 12.5412,31.8754 12.5412,31.0764 C12.5412,30.2774 11.8932,29.6294 11.0942,29.6294 M33.5232,6.4764 L17.6062,6.4764 C16.8062,6.4764 16.1582,7.1244 16.1582,7.9234 C16.1582,8.7224 16.8062,9.3704 17.6062,9.3704 L33.5232,9.3704 C34.3232,9.3704 34.9702,8.7224 34.9702,7.9234 C34.9702,7.1244 34.3232,6.4764 33.5232,6.4764 M33.5232,18.0534 L17.6062,18.0534 C16.8062,18.0534 16.1582,18.7004 16.1582,19.4994 C16.1582,20.2994 16.8062,20.9464 17.6062,20.9464 L33.5232,20.9464 C34.3232,20.9464 34.9702,20.2994 34.9702,19.4994 C34.9702,18.7004 34.3232,18.0534 33.5232,18.0534 M33.5232,29.6294 L17.6062,29.6294 C16.8062,29.6294 16.1582,30.2774 16.1582,31.0764 C16.1582,31.8754 16.8062,32.5234 17.6062,32.5234 L33.5232,32.5234 C34.3232,32.5234 34.9702,31.8754 34.9702,31.0764 C34.9702,30.2774 34.3232,29.6294 33.5232,29.6294" id="Fill-2"></path>
                    <path d="M37.8647,33.9705 C37.8647,34.7695 37.2167,35.4175 36.4177,35.4175 L4.5827,35.4175 C3.7827,35.4175 3.1357,34.7695 3.1357,33.9705 L3.1357,26.7355 L33.5237,26.7355 C34.3227,26.7355 34.9697,26.0875 34.9697,25.2875 C34.9697,24.4895 34.3227,23.8415 33.5237,23.8415 L3.1357,23.8415 L3.1357,15.1585 L33.5237,15.1585 C34.3227,15.1585 34.9697,14.5115 34.9697,13.7115 C34.9697,12.9125 34.3227,12.2645 33.5237,12.2645 L3.1357,12.2645 L3.1357,5.0295 C3.1357,4.2305 3.7827,3.5825 4.5827,3.5825 L36.4177,3.5825 C37.2167,3.5825 37.8647,4.2305 37.8647,5.0295 L37.8647,33.9705 Z M36.4177,0.6885 L4.5827,0.6885 C2.1847,0.6885 0.2407,2.6315 0.2407,5.0295 L0.2407,33.9705 C0.2407,36.3675 2.1847,38.3115 4.5827,38.3115 L36.4177,38.3115 C38.8147,38.3115 40.7587,36.3675 40.7587,33.9705 L40.7587,5.0295 C40.7587,2.6315 38.8147,0.6885 36.4177,0.6885 Z" id="Fill-4"></path>
                </g>
            </g>
        </g>
    </g>
</svg>