<?xml version="1.0" encoding="UTF-8"?>
<svg width="37px" height="34px" viewBox="0 0 37 34" version="1.1" xmlns="http://www.w3.org/2000/svg" xmlns:xlink="http://www.w3.org/1999/xlink">
    <!-- Generator: Sketch 51 (57462) - http://www.bohemiancoding.com/sketch -->
    <title>智慧城市</title>
    <desc>Created with Sketch.</desc>
    <defs></defs>
    <g id="Page-1" stroke="none" stroke-width="1" fill="none" fill-rule="evenodd">
        <g id="Artboard-2" transform="translate(-45.000000, -3445.000000)">
            <g id="智慧城市" transform="translate(41.000000, 3440.000000)">
                <polygon id="Fill-1" points="0 45 45 45 45 0 0 0"></polygon>
                <g id="Group-6" transform="translate(4.000000, 5.000000)" fill="#0033A1">
                    <path d="M35.3618,11.9165 C31.3848,11.9165 29.2828,15.7195 27.5938,18.7755 C26.5108,20.7345 23.3908,22.7585 22.2918,22.8685 C21.0948,22.6305 20.2748,21.8955 19.3278,21.0495 C17.9958,19.8565 16.4968,18.5205 13.8548,18.6185 C10.6338,18.7585 7.7208,21.0395 5.1968,25.4015 C4.8258,26.0425 5.0448,26.8645 5.6868,27.2355 C6.3278,27.6075 7.1498,27.3885 7.5208,26.7465 C9.5538,23.2295 11.7248,21.3985 13.9688,21.3005 C15.5188,21.2405 16.3588,21.9955 17.5348,23.0485 C18.6618,24.0595 19.9398,25.2025 21.9768,25.5405 C22.0488,25.5525 22.1218,25.5585 22.1948,25.5585 C24.9098,25.5585 28.4508,22.7705 29.9408,20.0755 C31.1298,17.9215 32.3528,15.7125 34.0168,14.9125 L34.0168,30.4325 L2.8108,30.4325 L2.8108,3.6785 L34.2878,3.6785 C35.0288,3.6785 35.6308,3.0775 35.6308,2.3355 C35.6308,1.5945 35.0288,0.9945 34.2878,0.9945 L1.4678,0.9945 C0.7268,0.9945 0.1258,1.5945 0.1258,2.3355 L0.1258,31.7755 C0.1258,32.5175 0.7268,33.1185 1.4678,33.1185 L35.3618,33.1185 C36.1038,33.1185 36.7038,32.5175 36.7038,31.7755 L36.7038,13.2585 C36.7038,12.5175 36.1038,11.9165 35.3618,11.9165" id="Fill-2"></path>
                    <path d="M11.1665,11.7593 C11.1305,12.6853 10.3685,13.4173 9.4415,13.4173 C8.5145,13.4173 7.7535,12.6853 7.7165,11.7593 C7.7535,10.8333 8.5145,10.1013 9.4415,10.1013 C10.3685,10.1013 11.1305,10.8333 11.1665,11.7593 M5.0325,11.7593 C5.0325,14.1903 7.0105,16.1693 9.4415,16.1693 C11.8725,16.1693 13.8515,14.1903 13.8515,11.7593 C13.8515,9.3283 11.8725,7.3513 9.4415,7.3513 C7.0105,7.3513 5.0325,9.3283 5.0325,11.7593" id="Fill-4"></path>
                </g>
            </g>
        </g>
    </g>
</svg>